<svg width="153" height="40" xmlns="http://www.w3.org/2000/svg"><g fill="none" fill-rule="evenodd"><path d="M56.764 28.286c1.295 0 2.31-.47 3.282-1.766v-7.973c-1.054-.941-2.23-1.256-3.324-1.256-1.903 0-3.605 1.73-3.605 5.42 0 3.848 1.337 5.575 3.647 5.575M55.346 12.58c2.229 0 3.565.783 4.942 2.042l-.242-2.985V5H66v27.528h-4.86l-.405-1.924h-.163C59.154 31.978 57.168 33 55.222 33 50.242 33 47 29.15 47 22.79c0-6.363 4.092-10.21 8.346-10.21M79.943 21.038c0-2.193-.97-3.73-3.357-3.73-1.86 0-3.477 1.191-3.883 3.73h7.24zM76.465 13C82.169 13 85 16.96 85 22.153c0 1-.123 1.924-.242 2.386H72.744c.525 2.884 2.547 4.153 5.217 4.153 1.497 0 2.873-.423 4.33-1.27l1.98 3.424C82.21 32.191 79.54 33 77.155 33 71.41 33 67 29.307 67 23c0-6.193 4.651-10 9.465-10z" fill="#6B7377"/><path d="M86.226 6.98c0-1.764 1.434-2.98 3.387-2.98S93 5.216 93 6.98c0 1.766-1.434 3.021-3.387 3.021s-3.387-1.255-3.387-3.02zm.437 5.883h5.86v19.334c0 4.235-1.674 7.803-7.054 7.803-1.635 0-2.67-.234-3.469-.548l1.038-4.236c.517.157.995.276 1.553.276 1.553 0 2.072-.982 2.072-3.138V12.863zM103.4 28.615c1.276 0 2.103-.615 3.08-1.616v-3.346c-3.944.538-5.222 1.692-5.222 3.154 0 1.23.826 1.808 2.142 1.808m3.08-8.345c-.113-1.694-.94-2.771-2.931-2.771-1.578 0-3.155.653-4.957 1.73l-1.954-3.73C99.005 14.037 101.671 13 104.6 13c4.77 0 7.4 2.769 7.4 8.615v10.923h-4.508l-.412-1.961h-.114C105.39 32 103.624 33 101.521 33 98.142 33 96 30.461 96 27.23c0-3.999 3.117-6.193 10.48-6.96M113 13h5.636l2.436 9.436c.495 1.975.99 4.071 1.485 6.17h.153a203.97 203.97 0 0 1 1.446-6.17L126.631 13H132l-6.168 20h-6.473L113 13zM135 13h5.959v11.378c0 2.795.77 3.701 2.514 3.701 1.5 0 2.391-.631 3.567-2.166V13H153v19.527h-4.866l-.445-2.716h-.123C145.864 31.78 144 33 141.244 33c-4.38 0-6.244-2.992-6.244-7.874V13z" fill="#6B7377"/><path d="M0 5.455S1.58 1.28 12.673.182c10.665-1.055 17.24 2.813 17.389 2.919.15.106 2.862 1.37 2.936 3.796.073 2.427-1.709 3.552-4.014 4.922C26.68 13.192 20.587 14 20.587 14s-1.226-4.9-7.246-7.244C5.96 3.884 0 5.456 0 5.456" fill="#C5DFFF"/><path d="M0 7.089s7.242-.552 11.962 1.096c4.518 1.58 6.607 4.649 7.038 6.6 0 0-6.849 1.128-12.804-1.79C.416 10.162 0 7.09 0 7.09" fill="#0087FF"/><path d="M0 10v5.563s2.975 8.186 18.902 7.381c0 0 .388-3.3-.38-6.03 0 0-14.337 1.351-18.522-6.914" fill="#0087FF"/><path d="M0 18v5.989s3.697 6.431 15.063 5.99c0 0 2.818-1.425 3.937-5.353 0 0-14.725 1.082-19-6.626" fill="#0087FF"/><path d="M0 26v5.784s4.268 2.88 13-.225c0 0-10.358-.502-13-5.559" fill="#0087FF"/><path d="M21 16.497s.508 3.421.205 5.503c0 0 10.101-.296 11.795-6.494V10s-.728 5.158-12 6.497" fill="#C5DFFF"/><path d="M21.413 23.946s-1.29 4.242-3.413 6.045c0 0 12.137.53 15-6.363V17s-.458 5.261-11.587 6.946" fill="#C5DFFF"/><path d="M0 33.268s6.95 3.322 15.41-2.024c0 0 15.928 1.309 17.59-6.244v7.156s-3.612 6.433-16.52 5.8C3.573 37.323 0 33.268 0 33.268" fill="#C5DFFF"/></g></svg>