<svg xmlns="http://www.w3.org/2000/svg" xmlns:xlink="http://www.w3.org/1999/xlink" version="1.1" x="0px" y="0px" viewBox="0 0 90 112.5" enable-background="new 0 0 90 90" xml:space="preserve"><path fill="#000000" d="M70.078,51.697l-2.115-0.108c-0.583-0.039-1.146,0.18-1.568,0.58c-0.42,0.4-0.658,0.956-0.658,1.536  c0,3.091-2.515,5.606-5.605,5.606s-5.605-2.515-5.605-5.606c0-0.001,0-0.002,0-0.003V31.406h9.971c1.17,0,2.119-0.949,2.119-2.119  V21.8c0-1.17-0.949-2.119-2.119-2.119H20.023c-1.171,0-2.119,0.949-2.119,2.119v7.486c0,1.17,0.948,2.119,2.119,2.119h6.541v35.36  c0,1.16,0.932,2.104,2.092,2.119l7.127,0.09c0.009,0,0.018,0,0.026,0c0.558,0,1.092-0.219,1.488-0.611  c0.404-0.398,0.631-0.941,0.631-1.507V31.406h5.321v22.461c0,0.035,0,0.069,0.002,0.104c0.084,7.879,6.52,14.262,14.417,14.262  c7.951,0,14.421-6.468,14.421-14.419C72.09,52.685,71.206,51.754,70.078,51.697z M57.669,63.995c-5.613,0-10.18-4.568-10.18-10.182  c0-0.028,0-0.056-0.002-0.084V29.337l-0.001-0.089c-0.021-1.155-0.964-2.08-2.119-2.08h-9.562c-0.583,0-1.139,0.239-1.539,0.663  s-0.608,0.992-0.576,1.574L33.69,64.71l-2.889-0.037V29.287c0-1.17-0.948-2.119-2.119-2.119h-6.54v-3.249h40.234v3.249h-9.969  c-1.156,0-2.098,0.925-2.119,2.08l-0.002,24.619c0,0.047,0.002,0.093,0.005,0.14c0.159,5.29,4.511,9.543,9.839,9.543  c0.191,0,0.384-0.005,0.573-0.017C59.745,63.833,58.726,63.995,57.669,63.995z"/></svg>