<svg xmlns="http://www.w3.org/2000/svg" xmlns:xlink="http://www.w3.org/1999/xlink" xmlns:sketch="http://www.bohemiancoding.com/sketch/ns" viewBox="0 0 30 37.5" version="1.1" x="0px" y="0px"><title>design-text-type-letter-charater-graphic</title><desc>Created with Sketch.</desc><g stroke="none" stroke-width="1" fill="none" fill-rule="evenodd" sketch:type="MSPage"><g sketch:type="MSArtboardGroup" transform="translate(-360.000000, -270.000000)"><path d="M363,272 L388,272 L388,297 L363,297 L363,272 Z M364,273 L387,273 L387,296 L364,296 L364,273 Z M368,276 L383,276 L383,279 L377,279 L377,293 L374,293 L374,279 L368,279 L368,276 Z M369,277 L382,277 L382,278 L376,278 L376,292 L375,292 L375,278 L369,278 L369,277 Z" fill="#000000" sketch:type="MSShapeGroup"/></g></g></svg>