<?xml version="1.0" encoding="utf-8"?>
<!-- Generator: Adobe Illustrator 16.0.0, SVG Export Plug-In . SVG Version: 6.00 Build 0)  -->
<!DOCTYPE svg PUBLIC "-//W3C//DTD SVG 1.1//EN" "http://www.w3.org/Graphics/SVG/1.1/DTD/svg11.dtd">
<svg version="1.1" id="Layer_1" xmlns="http://www.w3.org/2000/svg" xmlns:xlink="http://www.w3.org/1999/xlink" x="0px" y="0px"
	 width="228.345px" height="48.756px" viewBox="0 0 228.345 48.756" enable-background="new 0 0 228.345 48.756"
	 xml:space="preserve">
<polygon fill="#ffffff" points="218.345,9.575 218.345,20.271 209.345,16.291 209.345,5.668 "/>
<polygon fill="#ffffff" points="219.345,9.575 219.345,20.271 228.345,16.291 228.345,5.668 "/>
<polygon fill="#ffffff" points="218.941,0.34 227.652,4.661 218.938,8.417 209.849,4.616 "/>
<g>
	<g>
		<path fill="#ffffff" d="M0,4.09C0,1.668,1.938,0,4.576,0c2.689,0,4.572,1.668,4.572,4.09S7.265,8.234,4.576,8.234
			C1.938,8.234,0,6.512,0,4.09z M0.646,12.163h7.912v26.691H0.646V12.163z"/>
		<path fill="#ffffff" d="M13.345,12.163h6.458l0.539,3.443h0.216c2.206-2.207,4.573-4.09,8.071-4.09
			c3.767,0,6.028,1.615,7.374,4.467c2.367-2.421,4.843-4.467,8.394-4.467c5.758,0,8.341,4.09,8.341,10.764v16.575h-7.911V23.302
			c0-3.874-1.022-5.059-3.282-5.059c-1.345,0-2.852,0.862-4.574,2.583v18.028H29.06V23.302c0-3.874-1.022-5.059-3.283-5.059
			c-1.292,0-2.853,0.862-4.521,2.583v18.028h-7.911V12.163z"/>
		<path fill="#ffffff" d="M65.224,40.953v7.804h-7.911V12.163h6.458l0.539,2.637h0.215c2.099-1.885,4.789-3.284,7.588-3.284
			c6.457,0,10.44,5.329,10.44,13.562c0,9.149-5.49,14.422-11.248,14.422c-2.314,0-4.467-1.021-6.35-2.798L65.224,40.953z
			 M69.475,33.042c2.745,0,4.951-2.366,4.951-7.856c0-4.789-1.452-7.211-4.628-7.211c-1.614,0-3.013,0.754-4.574,2.422v10.923
			C66.624,32.612,68.13,33.042,69.475,33.042z"/>
		<path fill="#ffffff" d="M98.537,11.516c6.726,0,12.969,5.113,12.969,13.992c0,8.878-6.243,13.992-12.969,13.992
			c-6.781,0-13.023-5.113-13.023-13.992C85.513,16.628,91.756,11.516,98.537,11.516z M98.537,33.096c3.229,0,4.896-2.96,4.896-7.588
			s-1.667-7.588-4.896-7.588c-3.283,0-4.897,2.959-4.897,7.588S95.254,33.096,98.537,33.096z"/>
		<path fill="#ffffff" d="M115.865,12.163h6.459l0.538,4.682h0.215c1.937-3.605,4.842-5.329,7.587-5.329
			c1.508,0,2.423,0.215,3.176,0.538l-1.293,6.836c-0.967-0.27-1.774-0.432-2.904-0.432c-1.992,0-4.468,1.292-5.867,4.898v15.498
			h-7.91V12.163z"/>
		<path fill="#ffffff" d="M139.437,18.351h-3.66v-5.866l4.092-0.322l0.913-7.104h6.566v7.104h6.403v6.188h-6.403V29.06
			c0,3.013,1.345,4.251,3.443,4.251c0.86,0,1.83-0.27,2.529-0.537l1.238,5.757c-1.399,0.431-3.337,0.969-5.919,0.969
			c-6.619,0-9.203-4.144-9.203-10.331V18.351z"/>
		<path fill="#ffffff" d="M169.465,11.516c7.588,0,11.356,5.544,11.356,12.809c0,1.399-0.162,2.69-0.323,3.336h-15.983
			c0.699,4.036,3.39,5.812,6.942,5.812c1.991,0,3.82-0.592,5.757-1.775l2.639,4.79c-2.745,1.883-6.296,3.013-9.472,3.013
			c-7.642,0-13.508-5.166-13.508-13.992C156.873,16.844,163.062,11.516,169.465,11.516z M174.094,22.764
			c0-3.067-1.291-5.22-4.467-5.22c-2.476,0-4.628,1.668-5.165,5.22H174.094z"/>
		<path fill="#ffffff" d="M186.31,12.163h6.458l0.538,4.682h0.216c1.938-3.605,4.843-5.329,7.587-5.329
			c1.507,0,2.422,0.215,3.177,0.538l-1.293,6.836c-0.968-0.27-1.775-0.432-2.905-0.432c-1.991,0-4.467,1.292-5.866,4.898v15.498
			h-7.911V12.163z"/>
	</g>
</g>
</svg>
