<?xml version="1.0" encoding="UTF-8"?>
<svg width="21px" height="20px" viewBox="0 0 21 20" version="1.1" xmlns="http://www.w3.org/2000/svg" xmlns:xlink="http://www.w3.org/1999/xlink">
    <!-- Generator: Sketch 51.2 (57519) - http://www.bohemiancoding.com/sketch -->
    <title>Github@3x</title>
    <desc>Created with Sketch.</desc>
    <defs>
        <polygon id="path-1" points="0.000117679785 0.309473684 20.8508462 0.309473684 20.8508462 19.9998519 0.000117679785 19.9998519"></polygon>
    </defs>
    <g id="Symbols" stroke="none" stroke-width="1" fill="none" fill-rule="evenodd">
        <g id="Footer" transform="translate(-1134.000000, -116.000000)">
            <g id="Github" transform="translate(1134.000000, 116.000000)">
                <g id="Group-3">
                    <mask id="mask-2" fill="white">
                        <use xlink:href="#path-1"></use>
                    </mask>
                    <g id="Clip-2"></g>
                    <path d="M13.1628538,19.8982105 C12.7525462,18.7366316 13.2678538,16.8845263 12.8661615,15.694 C12.7412385,15.3213684 12.4951615,15.1408421 12.3718538,14.8245263 C15.3533154,14.7113684 17.1593154,12.8203158 17.0677769,9.80031579 C17.0327769,8.64242105 16.6111615,7.85768421 15.9800846,7.19189474 C16.3252385,6.45452632 16.1960077,5.14557895 15.8826231,4.48610526 C14.5563923,4.494 13.8467,5.10557895 12.9652385,5.54873684 C11.5770846,5.09347368 9.26546923,5.09768421 7.87516154,5.54873684 C7.00608462,5.10978947 6.29962308,4.51189474 5.00785385,4.48610526 C4.61262308,5.04505263 4.52000769,6.44136842 4.85977692,7.14347368 C4.28254615,7.83926316 3.84585385,8.55452632 3.77262308,9.65610526 C3.55993077,12.7850526 5.50754615,14.6292632 8.36839231,14.8729474 C8.42708462,15.1118947 7.81916154,15.6087368 7.87516154,16.2261053 C7.22523846,16.4913684 6.35400769,16.5655789 5.79885385,16.3224211 C4.72085385,15.8518947 4.4317,13.9087368 2.78400769,14.4382105 C2.94877692,15.0061053 3.50231538,15.0729474 3.87008462,15.5492632 C4.21631538,15.9950526 4.29600769,16.6050526 4.66216154,16.9992632 C5.30993077,17.6997895 6.46762308,17.8645263 7.82562308,17.6276842 C7.66031538,18.3466316 8.12931538,19.654 7.62800769,19.9466316 C7.27154615,20.154 6.36046923,19.7050526 5.84839231,19.4629474 C4.27608462,18.7187368 2.92562308,17.5176842 2.04254615,16.3713684 C0.714161538,14.6471579 -0.264761538,12.2003158 0.0642384615,9.26926316 C0.352315385,6.72768421 1.59562308,4.62084211 3.17923846,3.18242105 C4.84416154,1.67031579 6.88223846,0.511368421 9.75223846,0.331368421 C12.8704692,0.136105263 15.3253154,1.24768421 17.0677769,2.69873684 C18.8576231,4.18821053 20.2059308,6.11031579 20.6760077,8.68873684 C21.6500846,14.0418947 18.3929308,17.8403158 14.9424692,19.4629474 C14.4384692,19.6997895 13.8251615,20.1329474 13.1628538,19.8982105" id="Fill-1" fill="#FFFFFF" mask="url(#mask-2)"></path>
                </g>
            </g>
        </g>
    </g>
</svg>
