<?xml version="1.0" encoding="UTF-8"?>
<svg width="245px" height="142px" viewBox="0 0 245 142" version="1.1" xmlns="http://www.w3.org/2000/svg" xmlns:xlink="http://www.w3.org/1999/xlink">
    <!-- Generator: Sketch 48.2 (47327) - http://www.bohemiancoding.com/sketch -->
    <title>Jellyfish</title>
    <desc>Created with Sketch.</desc>
    <defs>
        <polygon id="path-1" points="0.288555556 0.057075 6.45011111 0.057075 6.45011111 6 0.288555556 6"></polygon>
        <polygon id="path-3" points="0 0.144277778 5.941425 0.144277778 5.941425 6.30661111 0 6.30661111"></polygon>
        <polygon id="path-5" points="0.301391651 0.312325203 97.7979349 0.312325203 97.7979349 97.519559 0.301391651 97.519559"></polygon>
    </defs>
    <g id="Landing-Page-" stroke="none" stroke-width="1" fill="none" fill-rule="evenodd" transform="translate(-862.000000, -3364.000000)">
        <g id="Jellyfish" transform="translate(862.000000, 3364.000000)">
            <path d="M245,21.5 C245,23.9861239 242.985482,26 240.500413,26 C238.014518,26 236,23.9861239 236,21.5 C236,19.0147032 238.014518,17 240.500413,17 C242.985482,17 245,19.0147032 245,21.5" id="Fill-1" fill="#86DDF8" opacity="0.202275815"></path>
            <path d="M203,7.5 C203,9.98612387 200.985482,12 198.500413,12 C196.014518,12 194,9.98612387 194,7.5 C194,5.01470318 196.014518,3 198.500413,3 C200.985482,3 203,5.01470318 203,7.5" id="Fill-3" fill="#86DDF8" opacity="0.202275815"></path>
            <path d="M228,7.5 C228,9.98612387 225.985482,12 223.500413,12 C221.014518,12 219,9.98612387 219,7.5 C219,5.01470318 221.014518,3 223.500413,3 C225.985482,3 228,5.01470318 228,7.5" id="Fill-5" fill="#86DDF8" opacity="0.202275815"></path>
            <path d="M202,75.499607 C202,77.432566 200.433962,79 198.500786,79 C196.566038,79 195,77.432566 195,75.499607 C195,73.566648 196.566038,72 198.500786,72 C200.433962,72 202,73.566648 202,75.499607" id="Fill-7" fill="#86DDF8" opacity="0.202275815"></path>
            <g id="Group-11" opacity="0.198199728" transform="translate(35.000000, 136.000000)">
                <mask id="mask-2" fill="white">
                    <use xlink:href="#path-1"></use>
                </mask>
                <g id="Clip-10"></g>
                <path d="M6.45011111,3.027825 C6.45011111,4.669575 5.07111111,6.000075 3.36933333,6.000075 C1.66833333,6.000075 0.288555556,4.669575 0.288555556,3.027825 C0.288555556,1.386825 1.66833333,0.057075 3.36933333,0.057075 C5.07111111,0.057075 6.45011111,1.386825 6.45011111,3.027825" id="Fill-9" fill="#86DDF8" mask="url(#mask-2)"></path>
            </g>
            <path d="M22,99 C22,100.657157 20.6565695,102 19.0003786,102 C17.3434305,102 16,100.657157 16,99 C16,97.3428427 17.3434305,96 19.0003786,96 C20.6565695,96 22,97.3428427 22,99" id="Fill-12" fill="#86DDF8" opacity="0.20091712"></path>
            <path d="M162,83 C162,84.6571573 160.657157,86 159,86 C157.3436,86 156,84.6571573 156,83 C156,81.3428427 157.3436,80 159,80 C160.657157,80 162,81.3428427 162,83" id="Fill-14" fill="#86DDF8" opacity="0.20091712"></path>
            <path d="M106,115.500386 C106,116.881691 104.880747,118 103.499229,118 C102.119253,118 101,116.881691 101,115.500386 C101,114.119081 102.119253,113 103.499229,113 C104.880747,113 106,114.119081 106,115.500386" id="Fill-16" fill="#86DDF8" opacity="0.20091712"></path>
            <path d="M52,59.5011569 C52,60.8816906 50.8807467,62 49.5007714,62 C48.1192533,62 47,60.8816906 47,59.5011569 C47,58.1198519 48.1192533,57 49.5007714,57 C50.8807467,57 52,58.1198519 52,59.5011569" id="Fill-18" fill="#86DDF8" opacity="0.20091712"></path>
            <path d="M33,112 C33,113.657157 31.6571573,115 30,115 C28.3436001,115 27,113.657157 27,112 C27,110.342843 28.3436001,109 30,109 C31.6571573,109 33,110.342843 33,112" id="Fill-20" fill="#86DDF8" opacity="0.20091712"></path>
            <path d="M19,63 C19,64.6571573 17.6573268,66 15.9996214,66 C14.3434305,66 13,64.6571573 13,63 C13,61.3428427 14.3434305,60 15.9996214,60 C17.6573268,60 19,61.3428427 19,63" id="Fill-22" fill="#86DDF8" opacity="0.20091712"></path>
            <path d="M54,131.998183 C54,133.104044 53.105861,134 51.9981826,134 C50.894139,134 50,133.104044 50,131.998183 C50,130.894139 50.894139,130 51.9981826,130 C53.105861,130 54,130.894139 54,131.998183" id="Fill-24" fill="#86DDF8" opacity="0.20091712"></path>
            <path d="M177,41.9981826 C177,43.1040436 176.105861,44 174.998183,44 C173.894139,44 173,43.1040436 173,41.9981826 C173,40.894139 173.894139,40 174.998183,40 C176.105861,40 177,40.894139 177,41.9981826" id="Fill-26" fill="#86DDF8" opacity="0.20091712"></path>
            <path d="M32,136.999546 C32,138.105658 31.105861,139 30,139 C28.8959564,139 28,138.105658 28,136.999546 C28,135.895251 28.8959564,135 30,135 C31.105861,135 32,135.895251 32,136.999546" id="Fill-28" fill="#86DDF8" opacity="0.20091712"></path>
            <path d="M40,73.4995837 C40,74.3288926 39.3278734,75 38.5,75 C37.6721266,75 37,74.3288926 37,73.4995837 C37,72.6727727 37.6721266,72 38.5,72 C39.3278734,72 40,72.6727727 40,73.4995837" id="Fill-30" fill="#86DDF8" opacity="0.20091712"></path>
            <path d="M63,104.5 C63,105.327873 62.3291667,106 61.4991667,106 C60.6708333,106 60,105.327873 60,104.5 C60,103.672127 60.6708333,103 61.4991667,103 C62.3291667,103 63,103.672127 63,104.5" id="Fill-32" fill="#86DDF8" opacity="0.20091712"></path>
            <path d="M19,128.999546 C19,130.104247 18.1040436,131 16.9990913,131 C15.894139,131 15,130.104247 15,128.999546 C15,127.895753 15.894139,127 16.9990913,127 C18.1040436,127 19,127.895753 19,128.999546" id="Fill-34" fill="#86DDF8" opacity="0.20091712"></path>
            <path d="M100,100.499583 C100,101.329353 99.3278734,102 98.5,102 C97.6721266,102 97,101.329353 97,100.499583 C97,99.6714801 97.6721266,99 98.5,99 C99.3278734,99 100,99.6714801 100,100.499583" id="Fill-36" fill="#86DDF8" opacity="0.20091712"></path>
            <path d="M127,139.000909 C127,140.104044 126.105861,141 125,141 C123.894139,141 123,140.104044 123,139.000909 C123,137.895956 123.894139,137 125,137 C126.105861,137 127,137.895956 127,139.000909" id="Fill-38" fill="#86DDF8" opacity="0.20091712"></path>
            <path d="M87,118.999621 C87,120.656569 85.6571573,122 83.9984852,122 C82.3420853,122 81,120.656569 81,118.999621 C81,117.342673 82.3420853,116 83.9984852,116 C85.6571573,116 87,117.342673 87,118.999621" id="Fill-40" fill="#86DDF8" opacity="0.20091712"></path>
            <path d="M75,136.999621 C75,138.656569 73.6571573,140 72,140 C70.3420853,140 69,138.656569 69,136.999621 C69,135.342673 70.3420853,134 72,134 C73.6571573,134 75,135.342673 75,136.999621" id="Fill-42" fill="#86DDF8" opacity="0.20091712"></path>
            <g id="Group-46" opacity="0.198199728" transform="translate(0.000000, 101.000000)">
                <mask id="mask-4" fill="white">
                    <use xlink:href="#path-3"></use>
                </mask>
                <g id="Clip-45"></g>
                <path d="M5.941425,3.22505556 C5.941425,4.92683333 4.612425,6.30661111 2.970675,6.30661111 C1.329675,6.30661111 -7.5e-05,4.92683333 -7.5e-05,3.22505556 C-7.5e-05,1.52327778 1.329675,0.144277778 2.970675,0.144277778 C4.612425,0.144277778 5.941425,1.52327778 5.941425,3.22505556" id="Fill-44" fill="#86DDF8" mask="url(#mask-4)"></path>
            </g>
            <path d="M53,112.000757 C53,113.655982 51.6571573,115 50,115 C48.3420853,115 47,113.655982 47,112.000757 C47,110.343261 48.3420853,109 50,109 C51.6571573,109 53,110.343261 53,112.000757" id="Fill-47" fill="#86DDF8" opacity="0.198199728"></path>
            <path d="M44.9859486,100.98707 C44.4529197,100.904848 44.0326159,100.458271 44.006045,99.898841 C43.9955777,99.6674916 43.7797895,94.1787874 47.2050237,90.4828396 C49.0955855,88.4418058 51.693095,87.3608318 54.9266964,87.2705491 C58.0169758,87.1842968 60.8914671,85.8977684 62.8134308,83.7406569 C64.6073711,81.7270304 65.4222128,79.1136688 65.1701916,76.1802873 C64.8561716,72.5351235 66.0083836,69.0753617 68.4134552,66.4426538 C70.8161112,63.8131703 74.2582541,62.2388658 77.6190739,62.2299988 C79.7109306,62.2251622 81.3704058,61.6036626 82.5443577,60.3800096 C84.8028866,58.0294352 84.6917718,54.2351437 84.6917718,54.1996755 C84.666006,53.5596357 85.1628019,53.0243883 85.8029197,53.0010115 C86.4414271,52.9744103 86.974456,53.4758017 86.9970011,54.1142294 C87.0050529,54.3109167 87.1387127,58.9330682 84.2070536,61.9841396 C82.5822011,63.675328 80.3663468,64.536238 77.6255153,64.5410745 C74.8999823,64.5491355 72.0931261,65.8429187 70.1180205,68.0032547 C68.7258649,69.5243569 67.1412714,72.1433611 67.471395,75.9819878 C67.7797788,79.5658884 66.7636421,82.7814033 64.5365153,85.2811054 C62.1918322,87.9097828 58.7150665,89.4776385 54.9911107,89.5824309 C52.4072893,89.6541734 50.3613278,90.4836457 48.9079786,92.0442466 C46.1405762,95.0187389 46.3112743,99.7448768 46.3128847,99.7924364 C46.3418711,100.429252 45.8474908,100.970142 45.2122041,100.998355 C45.135712,101.003192 45.0584148,100.996743 44.9859486,100.98707" id="Fill-49" fill="#86DDF8"></path>
            <path d="M69.9798061,122.986227 C69.4579985,122.908847 69.0408744,122.47439 69.0030273,121.923864 C68.9571275,121.287897 69.4386723,120.736565 70.0740214,120.69062 C70.1215317,120.685784 74.8314902,120.315005 77.4662969,117.224642 C78.8489262,115.601275 79.4351545,113.470907 79.2104874,110.893993 C78.8891891,107.179754 80.0487617,103.53967 82.3920647,100.907945 C84.6178,98.4059923 87.6906674,97.0268554 91.2813162,96.9244882 C95.1312584,96.8148665 97.5470347,94.9335658 98.8998694,93.3770997 C100.81558,91.166128 101.777864,88.230525 101.46945,85.5222257 C101.163452,82.7921633 101.764175,80.4909149 103.261151,78.6781277 C105.953936,75.4152719 110.560822,75.0195055 110.754084,75.0033847 C111.389433,74.9550222 111.945867,75.4305867 111.996598,76.0673594 C112.044913,76.7033261 111.573032,77.2578827 110.936072,77.3078572 C110.862794,77.3159177 107.079688,77.6673517 105.033525,80.161244 C103.95931,81.4702553 103.531718,83.1863176 103.764438,85.2626804 C104.142104,88.6013041 102.975284,92.2010852 100.64406,94.8916516 C98.3071989,97.5878603 95.0040275,99.1306236 91.3457369,99.234603 C88.4097635,99.3216554 85.9086298,100.430768 84.1161237,102.445066 C82.1939711,104.604451 81.2453762,107.611792 81.5111116,110.692482 C81.7945627,113.91826 81.0190985,116.625753 79.2104874,118.738388 C75.9346947,122.567085 70.4645719,122.980584 70.2326574,122.997511 C70.1464947,123.003153 70.0619425,122.999123 69.9798061,122.986227" id="Fill-51" fill="#86DDF8"></path>
            <path d="M57.9742367,101.986692 C57.3936223,101.900346 56.9647503,101.387025 57.0022866,100.79528 C57.2067395,97.4301748 59.4828757,90.8124518 66.6251513,89.8428452 C70.9258506,89.2566452 75.4493717,85.4812001 75.5723629,80.1776741 C75.7129243,73.7183835 81.4487874,68.5938862 86.5074001,68.0369962 C92.1913513,67.4143567 92.6936986,61.3139155 92.7104701,61.0556707 C92.7559928,60.4306547 93.3046614,59.958526 93.9347918,60.0028871 C94.5665194,60.051209 95.0425114,60.5914636 94.9969886,61.2180639 C94.7917371,64.0690557 92.8055088,69.6316187 86.7597717,70.2938663 C82.6451565,70.7477752 77.9778795,74.9406898 77.862076,80.2275804 C77.7063404,86.9910613 72.1158306,91.3883537 66.9358239,92.093378 C59.8853924,93.05031 59.3111672,100.616251 59.2888051,100.9347 C59.2488729,101.561301 58.7041975,102.036598 58.0740672,101.997782 C58.0397255,101.995406 58.0053838,101.993029 57.9742367,101.986692" id="Fill-53" fill="#86DDF8"></path>
            <path d="M65.9735903,109.987427 C65.5023047,109.916127 65.1061053,109.552497 65.0174397,109.060527 C64.9080056,108.443385 65.3249736,107.853972 65.9488279,107.744645 C66.2619532,107.688397 73.7745649,106.255266 73.9271336,99.2013147 C74.0397629,94.0114635 77.804456,87.9984928 84.562212,87.0747611 C89.8470009,86.3554229 93.5102478,81.277275 93.4926745,77.172769 C93.4663144,71.1392005 98.81261,68.5454633 101.64272,68.0194274 C102.267373,67.9045551 102.864867,68.3109653 102.979893,68.924938 C103.097315,69.5420795 102.688335,70.1330777 102.069273,70.2511188 C101.811264,70.3010289 95.759638,71.5289741 95.7844005,77.1624701 C95.8035714,82.2097212 91.3303523,88.4460987 84.8761362,89.3262582 C79.5745727,90.0503498 76.3091228,94.941533 76.2172621,99.2496403 C76.0646933,106.399451 69.6927525,109.396429 66.3450273,109.982674 C66.2188186,110.004064 66.0950063,110.005649 65.9735903,109.987427" id="Fill-55" fill="#86DDF8"></path>
            <g id="Group-59" transform="translate(62.000000, 0.000000)">
                <mask id="mask-6" fill="white">
                    <use xlink:href="#path-5"></use>
                </mask>
                <g id="Clip-58"></g>
                <path d="M60.9675672,97.3650715 C58.638059,97.0152992 55.3052557,95.9213642 52.7339607,92.6905512 C50.2566492,89.5752667 49.3858951,85.7954943 50.3442066,82.3216732 C51.6704197,77.5101122 56.179223,73.5980797 63.7477148,70.6931366 C74.3003869,66.6512341 87.7271902,59.5394618 91.7901738,48.5985187 C94.8916328,40.2438195 97.9778295,24.3471041 83.7670262,11.7847789 C69.6293213,-0.716196748 54.0770426,4.15113659 46.0627311,8.16515285 C35.573518,13.4173154 29.9802885,27.4663724 27.1358787,38.3236569 C25.0995672,46.1102748 21.697682,51.0007138 17.0354525,52.8595268 C13.6648951,54.2036407 9.77702623,53.778974 6.37112459,51.695478 C0.450157377,48.0639008 0.303960656,41.633348 0.30155082,41.3624537 C0.288698361,40.4143236 1.05582951,39.6398846 2.01012459,39.6263398 C2.96522295,39.6207626 3.74520656,40.3744862 3.75725574,41.3218195 C3.76046885,41.5082585 3.91630492,46.1596732 8.18653443,48.7793805 C9.35048525,49.4916732 12.4190098,51.0054943 15.7453869,49.6797057 C19.2878459,48.2678683 22.0679934,44.0435106 23.7910262,37.4615756 C26.8153705,25.9190878 32.8624525,10.9346488 44.5051738,5.10564065 C53.3034852,0.698827642 70.3996656,-4.62344878 86.0668131,9.22482764 C102.392649,23.6595106 97.7754033,42.3990228 95.0314033,49.7832829 C90.5242066,61.9265187 76.2097803,69.5952179 64.9936,73.8904862 C58.5986984,76.3452667 54.6859279,79.5736894 53.6786164,83.2259821 C52.7323541,86.6559821 54.6007803,89.5027626 55.4482393,90.5672179 C58.5954852,94.5238683 63.3725836,94.0832667 63.419977,94.0768927 C64.3670426,93.9788927 65.2177148,94.6632992 65.316518,95.6050553 C65.4153213,96.5468114 64.7253049,97.3897707 63.7758295,97.4861772 C63.6657803,97.4989252 62.5460098,97.6025024 60.9675672,97.3650715" id="Fill-57" fill="#86DDF8" mask="url(#mask-6)"></path>
            </g>
            <path d="M154.300666,50.7581248 C158.456621,39.4169347 159.30347,23.6775502 145.812197,11.5839211 C132.18431,-0.622132189 116.949805,2.22139641 106.214788,7.66754465 C94.9956292,13.358617 89.2250682,28.413017 86.4088938,39.3141469 C84.8310373,45.4244008 82.529364,49.1552773 80,51.2503821 C85.9734853,59.8291497 97.1487043,72.9972327 114.175974,82 C115.948765,79.2102744 119.370517,76.4510639 125.287279,74.1511865 C135.738682,70.0926738 149.952173,62.612451 154.300666,50.7581248 Z" id="Fill-60" fill-opacity="0.340862772" fill="#86DDF8"></path>
            <path d="M109.692666,20.9962489 C112.456442,19.1682929 116.175478,19.9271741 118.006661,22.6881408 C119.830559,25.4572066 119.072018,29.177101 116.311481,31.0018173 C113.542848,32.8346327 109.823812,32.0700822 107.994248,29.3099254 C106.167921,26.5424795 106.928891,22.8185355 109.692666,20.9962489" id="Fill-62" fill="#B6EF7E"></path>
            <path d="M126.344556,26.4996241 C127.729038,25.5827675 129.586558,25.9638756 130.500536,27.3471882 C131.417892,28.7271206 131.035238,30.5887197 129.650756,31.5021961 C128.271342,32.4148274 126.413822,32.0379445 125.499844,30.655477 C124.584177,29.2713194 124.961763,27.4097204 126.344556,26.4996241" id="Fill-64" fill="#B6EF7E"></path>
            <path d="M121.794607,14.6627268 C123.63567,13.4450255 126.121313,13.9529525 127.337657,15.7960494 C128.553172,17.6333556 128.049259,20.1192202 126.20654,21.3377488 C124.362994,22.5537956 121.880661,22.0483503 120.661835,20.2052534 C119.446319,18.3662927 119.951888,15.8796009 121.794607,14.6627268" id="Fill-66" fill="#B6EF7E"></path>
        </g>
    </g>
</svg>
