<?xml version="1.0" encoding="UTF-8"?>
<svg width="20px" height="20px" viewBox="0 0 20 20" version="1.1" xmlns="http://www.w3.org/2000/svg" xmlns:xlink="http://www.w3.org/1999/xlink">
    <!-- Generator: Sketch 51.2 (57519) - http://www.bohemiancoding.com/sketch -->
    <title>Medium@3x</title>
    <desc>Created with Sketch.</desc>
    <defs>
        <polygon id="path-1" points="10 0 20 0 20 20 10 20 0 20 0 0"></polygon>
    </defs>
    <g id="Symbols" stroke="none" stroke-width="1" fill="none" fill-rule="evenodd">
        <g id="Footer" transform="translate(-1205.000000, -116.000000)">
            <g id="Medium" transform="translate(1205.000000, 116.000000)">
                <mask id="mask-2" fill="white">
                    <use xlink:href="#path-1"></use>
                </mask>
                <g id="Clip-2"></g>
                <path d="M16.1933956,15.1406854 C14.8954517,14.6945794 13.8487227,13.9992523 12.648972,13.4559502 C13.8113396,11.4616822 15.0240498,9.51925234 16.2507165,7.58978193 C16.3120249,9.95489097 16.4211838,12.8712773 16.1933956,15.1406854 M9.91850467,8.75165109 C10.6776324,7.41831776 11.4910903,6.14080997 12.3000623,4.8588162 C13.6623053,5.45246106 14.888972,6.18168224 16.2507165,6.77582555 C15.0863551,8.90267913 13.7440498,10.8525857 12.5328349,12.9330841 C11.6122118,11.5892835 10.7987539,10.1368224 9.91850467,8.75165109 M8.75862928,11.4816199 L8.75862928,7.47314642 C9.75551402,9.26803738 11.1137695,11.3141433 12.3598754,13.1658567 C11.1925234,12.804486 9.75551402,11.9715888 8.75862928,11.4816199 M8.23327103,15.1406854 C6.85906542,14.5988785 5.58205607,13.9593769 4.40024922,13.2241745 C4.2646729,10.628785 4.38080997,7.78317757 4.34292835,5.09158879 C4.32498442,4.99738318 4.39725857,4.99140187 4.40024922,4.91713396 C5.76897196,5.48535826 7.02056075,6.16971963 8.29208723,6.8341433 C8.25420561,9.5835514 8.36934579,12.4884735 8.23327103,15.1406854 M9.99975078,0 C4.47700935,0 0,4.47700935 0,10.0002492 C0,15.5234891 4.47700935,20 9.99975078,20 C15.5224922,20 20,15.5234891 20,10.0002492 C20,4.47700935 15.5224922,0 9.99975078,0" id="Fill-1" fill="#FFFFFF" mask="url(#mask-2)"></path>
            </g>
        </g>
    </g>
</svg>
