<?xml version="1.0" encoding="UTF-8"?>
<svg width="20px" height="20px" viewBox="0 0 20 20" version="1.1" xmlns="http://www.w3.org/2000/svg" xmlns:xlink="http://www.w3.org/1999/xlink">
    <!-- Generator: Sketch 51.2 (57519) - http://www.bohemiancoding.com/sketch -->
    <title>Twitter@3x</title>
    <desc>Created with Sketch.</desc>
    <defs>
        <polygon id="path-1" points="9.72590366e-16 20 9.72590366e-16 0 20 0 20 20"></polygon>
    </defs>
    <g id="Symbols" stroke="none" stroke-width="1" fill="none" fill-rule="evenodd">
        <g id="Footer" transform="translate(-1170.000000, -116.000000)">
            <g id="Twitter" transform="translate(1170.000000, 116.000000)">
                <mask id="mask-2" fill="white">
                    <use xlink:href="#path-1"></use>
                </mask>
                <g id="Clip-2"></g>
                <path d="M15.4803719,7.17787133 C15.4850207,7.2935768 15.4886364,7.40824918 15.4886364,7.52498773 C15.4886364,11.0674346 12.7918388,15.154317 7.85795455,15.154317 C6.34504132,15.154317 4.93698347,14.7106072 3.74845041,13.9492239 C3.9571281,13.9719518 4.17200413,13.9879646 4.38791322,13.9879646 C5.64411157,13.9879646 6.80113636,13.5587179 7.71849174,12.8391746 C6.54390496,12.8179963 5.5552686,12.0421498 5.21332645,10.9765232 C5.37654959,11.0080322 5.54545455,11.0250781 5.71694215,11.0250781 C5.96177686,11.0250781 6.05475207,10.9915029 6.27995868,10.9310674 C5.05268595,10.6831271 3.98347107,9.6009711 3.98347107,8.30031767 L3.98347107,8.26674243 C4.64721074,8.46664428 4.90340909,8.58751517 5.34349174,8.60094527 C4.62190083,8.12056096 4.22262397,7.29874222 4.22262397,6.36948268 C4.22262397,5.87773445 4.3910124,5.41801183 4.62190083,5.02234045 C5.94369835,6.64376663 7.93801653,7.71094295 10.1663223,7.82303262 C10.1193182,7.6272631 10.106405,7.42219582 10.106405,7.21144658 C10.106405,5.73155298 11.3109504,4.53214184 12.7918388,4.53214184 C13.5625,4.53214184 14.2623967,4.85704693 14.7510331,5.37772153 C15.3615702,5.25736718 15.9375,5.03473747 16.456095,4.72739482 C16.2551653,5.35241096 15.830062,5.87773445 15.276343,6.20987112 C15.8192149,6.14530334 16.3357438,6.00118805 16.8161157,5.78733955 C16.4586777,6.32764276 16.0051653,6.80027893 15.4803719,7.17787133 M10.0005165,0 C4.47778926,0 0,4.47738836 0,10.0002583 C0,15.5231282 4.47778926,20 10.0005165,20 C15.5227273,20 20,15.5231282 20,10.0002583 C20,4.47738836 15.5227273,0 10.0005165,0" id="Fill-1" fill="#FFFFFF" mask="url(#mask-2)"></path>
            </g>
        </g>
    </g>
</svg>
