<?xml version="1.0" encoding="utf-8"?>
<!-- Generator: Adobe Illustrator 16.0.0, SVG Export Plug-In . SVG Version: 6.00 Build 0)  -->
<!DOCTYPE svg PUBLIC "-//W3C//DTD SVG 1.1//EN" "http://www.w3.org/Graphics/SVG/1.1/DTD/svg11.dtd">
<svg version="1.1" id="Layer_1" xmlns="http://www.w3.org/2000/svg" xmlns:xlink="http://www.w3.org/1999/xlink" x="0px" y="0px"
	 width="117.152px" height="133.657px" viewBox="0 0 117.152 133.657" enable-background="new 0 0 117.152 133.657"
	 xml:space="preserve">
<path opacity="0.25" fill="#0087FF" enable-background="new    " d="M1.447,20.209c0,0,5.537-15.47,44.418-19.534
	c37.384-3.909,60.436,10.42,60.959,10.812c0.52,0.391,10.028,5.079,10.288,14.064c0.261,8.991-5.99,13.16-14.066,18.236
	c-8.079,5.084-29.437,8.079-29.437,8.079s-4.293-18.151-25.398-26.838C22.336,14.386,1.447,20.209,1.447,20.209z"/>
<path fill="#0087FF" d="M0.016,25.932c0,0,24.963-1.929,41.222,3.83C56.806,35.279,64.011,46,65.49,52.819l0,0
	c0,0-23.596,3.938-44.116-6.255C1.447,36.666,0.016,25.932,0.016,25.932z"/>
<path fill="#0087FF" d="M0.013,36.146l0.003,18.586c0,0,10.853,27.351,68.945,24.662c0,0,1.417-11.028-1.388-20.15
	C67.573,59.244,15.28,63.759,0.013,36.146z"/>
<path fill="#0087FF" d="M0,62.371v21.185c0,0,13.209,22.757,53.844,21.19c0,0,10.069-5.037,14.066-18.935
	C67.91,85.812,15.28,89.644,0,62.371z"/>
<path fill="#0087FF" d="M0,91.719v20.062c0,0,15.282,9.986,46.545-0.783C46.545,110.999,9.459,109.256,0,91.719z"/>
<path opacity="0.25" fill="#0087FF" enable-background="new    " d="M75.922,58.899c0,0,1.749,11.982,0.706,19.273
	c0,0,34.703-1.034,40.523-22.746V36.146C117.151,36.146,114.656,54.212,75.922,58.899z"/>
<path opacity="0.25" fill="#0087FF" enable-background="new    " d="M75.922,85.122c0,0-4.589,13.896-12.146,19.801
	c0,0,43.189,1.74,53.375-20.842V62.371C117.151,62.371,115.523,79.605,75.922,85.122z"/>
<path opacity="0.25" fill="#0087FF" enable-background="new    " d="M1.579,118.292c0,0,24.342,10.89,53.972-6.635
	c0,0,55.78,4.291,61.601-20.459v23.447c0,0-12.65,21.087-57.851,19.012C14.101,131.583,1.579,118.292,1.579,118.292z"/>
</svg>
